<svg
  height="20px"
  width="20px"
  id="Capa_1"
  enable-background="new 0 0 512.001 512.001"
  viewBox="0 0 512.001 512.001"
  xmlns="http://www.w3.org/2000/svg"
>
  <g>
    <g>
      <g>
        <path
          d="m502 329.058c-33.282 100.47-127.986 172.942-239.619 172.942-6.935 0-13.809-.277-20.611-.831-28.008-2.267-54.724-9.1-79.397-19.77-89.637-38.719-152.373-127.924-152.373-231.78 0-111.633 72.472-206.337 172.943-239.619-23.761 36.236-37.57 79.592-37.57 126.16v.728c.144 46.834 14.261 90.385 38.411 126.704 32.122 48.322 81.983 83.819 140.287 97.198 16.641 3.816 33.969 5.837 51.769 5.837 12.055 0 23.904-.923 35.467-2.729 33.076-5.088 63.844-17.235 90.693-34.84z"
          fill="#9ea6bf"
        />
        <g fill="#cfd3df">
          <path
            d="m183.784 263.592c-8.659 4.094-18.333 6.381-28.542 6.381-36.954 0-66.912-29.957-66.912-66.902 0-33.6 24.766-61.413 57.042-66.183.144 46.835 14.261 90.386 38.412 126.704z"
          />
          <path
            d="m411.327 365.263c0 24.151-19.585 43.736-43.746 43.736-24.151 0-43.736-19.585-43.736-43.736 0-1.508.072-3.006.226-4.473 16.641 3.816 33.969 5.837 51.769 5.837 12.055 0 23.904-.923 35.467-2.729.01.452.02.903.02 1.365z"
          />
          <ellipse
            cx="183.784"
            cy="408.999"
            rx="30.778"
            ry="40.21"
            transform="matrix(.465 -.885 .885 .465 -263.772 381.606)"
          />
        </g>
        <path
          d="m268.785 10 20.122 54.379 54.378 20.121-54.378 20.122-20.122 54.378-20.122-54.378-54.378-20.122 54.378-20.121z"
          fill="#ffcd69"
        />
        <path
          d="m396.5 114.667 28.495 77.005 77.005 28.495-77.005 28.495-28.495 77.005-28.495-77.005-77.005-28.495 77.005-28.495z"
          fill="#ffcd69"
        />
      </g>
    </g>
    <g>
      <path
        d="m508.093 321.128c-3.374-2.592-8.018-2.765-11.576-.433-26.414 17.319-55.594 28.53-86.752 33.323-11.087 1.731-22.5 2.609-33.924 2.609-16.711 0-33.376-1.879-49.533-5.584-55.078-12.638-102.736-45.662-134.196-92.988-23.901-35.943-36.605-77.852-36.739-121.167v-.729c0-43.097 12.425-84.826 35.933-120.676 2.333-3.558 2.16-8.203-.433-11.576-2.593-3.374-7.034-4.737-11.074-3.4-51.917 17.198-96.547 49.704-129.065 94.004-33.19 45.214-50.734 98.85-50.734 155.108 0 104.811 62.179 199.394 158.403 240.959 26.194 11.327 53.971 18.244 82.555 20.558 7.038.574 14.245.864 21.423.864 37.011 0 72.795-7.554 106.357-22.453 5.048-2.241 7.324-8.15 5.083-13.197-2.241-5.048-8.15-7.321-13.197-5.083-30.991 13.758-64.045 20.733-98.243 20.733-6.638 0-13.3-.269-19.804-.798-26.404-2.138-52.053-8.524-76.239-18.983-88.897-38.399-146.338-125.775-146.338-222.6 0-95.328 55.295-180.504 140.13-219.85-15.182 30.719-23.587 64.374-24.639 98.981-14.763 3.921-28.138 12.194-38.286 23.854-12.157 13.968-18.859 31.866-18.874 50.402-.325 26.166 13.062 50.394 35.82 64.821 12.839 8.14 27.216 12.261 41.53 12.261 8.285 0 16.548-1.383 24.479-4.165 32.682 45.751 79.685 78.302 133.776 92.643.739 11.996 5.558 23.572 13.816 32.711 10.188 11.276 24.594 17.723 39.493 17.723.142 0 .283-.001.421-.001 14.607 0 28.273-5.799 38.49-16.334 8.158-8.414 13.218-18.934 14.704-30.264 21.405-4.031 41.918-10.88 61.307-20.476-13.625 29.202-33.067 55.607-57.154 77.417-4.094 3.707-4.407 10.031-.7 14.125 3.708 4.094 10.031 4.407 14.125.7 33.61-30.435 58.871-69.151 73.054-111.965 1.339-4.039-.026-8.482-3.399-11.074zm-383.233-70.192c-16.868-10.694-26.786-28.538-26.53-47.732 0-.044.001-.089.001-.133-.001-24.113 15.466-45.392 37.416-53.453 2.132 38.544 13.415 75.738 33.02 108.849-14.603 3.632-30.372 1.05-43.907-7.531zm242.725 148.063c-.09-.001-.175 0-.262 0-9.329 0-18.333-4.05-24.731-11.131-3.848-4.259-6.503-9.347-7.816-14.744 13.517 2.323 27.278 3.503 41.065 3.503 8.012 0 16.021-.402 23.934-1.188-1.556 4.92-4.249 9.459-7.976 13.301-6.417 6.618-14.985 10.259-24.214 10.259z"
      />
      <path
        d="m139.328 385.66c-5.225 9.953-5.191 22.199.092 33.598 4.941 10.659 13.965 19.839 25.409 25.847 8.863 4.653 18.238 6.875 27.093 6.874 15.636-.001 29.646-6.931 36.318-19.641 10.451-19.908-.988-46.575-25.501-59.443-24.513-12.872-52.959-7.144-63.411 12.765zm71.204 37.381c-5.235 9.973-21.907 11.967-36.406 4.355-7.466-3.919-13.502-9.952-16.56-16.55-1.554-3.352-3.689-9.873-.53-15.89 3.086-5.879 10.147-8.985 18.395-8.985 5.742 0 12.061 1.506 18.012 4.63 14.498 7.613 22.324 22.468 17.089 32.44z"
      />
      <path
        d="m184.285 84.5c0 4.185 2.605 7.926 6.53 9.378l50.065 18.526 18.526 50.066c1.452 3.924 5.194 6.53 9.378 6.53 4.185 0 7.926-2.605 9.378-6.53l18.526-50.066 50.066-18.526c3.924-1.452 6.53-5.194 6.53-9.378 0-4.185-2.605-7.926-6.53-9.378l-50.066-18.526-18.524-50.066c-1.453-3.924-5.194-6.53-9.379-6.53s-7.926 2.605-9.378 6.53l-18.527 50.066-50.065 18.526c-3.924 1.452-6.53 5.194-6.53 9.378zm67.848-10.743c2.737-1.013 4.896-3.171 5.908-5.908l10.744-29.033 10.743 29.033c1.013 2.737 3.171 4.896 5.908 5.908l29.033 10.743-29.033 10.743c-2.737 1.013-4.896 3.171-5.908 5.908l-10.743 29.033-10.744-29.033c-1.013-2.737-3.171-4.896-5.908-5.908l-29.032-10.743z"
      />
      <path
        d="m281 220.167c0 4.185 2.605 7.926 6.53 9.378l72.693 26.899 26.899 72.693c1.452 3.924 5.194 6.53 9.378 6.53s7.926-2.605 9.378-6.53l26.899-72.693 72.693-26.899c3.924-1.452 6.53-5.194 6.53-9.378 0-4.185-2.605-7.926-6.53-9.378l-72.693-26.899-26.899-72.693c-1.452-3.924-5.194-6.53-9.378-6.53s-7.926 2.605-9.378 6.53l-26.899 72.693-72.693 26.899c-3.925 1.452-6.53 5.193-6.53 9.378zm90.476-19.116c2.737-1.013 4.896-3.171 5.908-5.908l19.116-51.66 19.116 51.66c1.013 2.737 3.171 4.896 5.908 5.908l51.66 19.116-51.66 19.116c-2.737 1.013-4.896 3.171-5.908 5.908l-19.116 51.66-19.116-51.66c-1.013-2.737-3.171-4.896-5.908-5.908l-51.66-19.116z"
      />
      <circle cx="399.922" cy="461.261" r="10" />
    </g>
  </g>
</svg>
