<svg
  height="20px"
  viewBox="-60 0 512 512"
  width="20px"
  xmlns="http://www.w3.org/2000/svg"
>
  <path
    d="m34.296875 228.949219 31.152344 247.1875c1.910156 16.167969 15.613281 28.347656 31.894531 28.347656h197.011719c16.28125 0 29.984375-12.179687 31.890625-28.347656l31.15625-247.1875zm0 0"
    fill="#ff4b4c"
  />
  <path
    d="m357.40625 228.949219-31.160156 247.183593c-1.90625 16.171876-15.609375 28.355469-31.894532 28.355469h-197.003906c-13.757812 0-25.667968-8.695312-30.1875-21.148437 1.992188.390625 4.046875.589844 6.140625.589844h197.003907c16.285156 0 29.988281-12.183594 31.894531-28.355469l28.566406-226.625zm0 0"
    fill="#fe2b23"
  />
  <path
    d="m328.441406 31.960938c-3.097656-14.355469-14.40625-24.445313-27.390625-24.445313h-210.402343c-12.984376 0-24.289063 10.089844-27.386719 24.445313l-25.996094 120.476562h317.167969zm0 0"
    fill="#ff4b4c"
  />
  <path
    d="m354.441406 152.441406h-317.179687l4.539062-21.042968h267.667969c7.824219 0 13.652344-7.21875 12.003906-14.867188l-22.78125-105.605469c-.25-1.164062-.550781-2.304687-.921875-3.40625h3.277344c12.984375 0 24.296875 10.089844 27.390625 24.445313zm0 0"
    fill="#fe2b23"
  />
  <path
    d="m364.832031 228.949219h-337.964843c-10.6875 0-19.351563-8.664063-19.351563-19.351563v-37.808594c0-10.6875 8.664063-19.351562 19.351563-19.351562h337.96875c10.6875 0 19.351562 8.664062 19.351562 19.351562v37.808594c0 10.6875-8.667969 19.351563-19.355469 19.351563zm0 0"
    fill="#9395a3"
  />
  <path
    d="m195.851562 7.515625h-88.910156l8.164063 78.378906c1.445312 13.902344 13.164062 24.460938 27.144531 24.460938h107.203125c13.976563 0 25.695313-10.558594 27.144531-24.460938l8.164063-78.378906zm0 0"
    fill="#fef1da"
  />
  <path
    d="m284.765625 7.519531-8.167969 78.371094c-1.453125 13.90625-13.164062 24.46875-27.144531 24.46875h-23.042969c13.976563 0 25.691406-10.5625 27.144532-24.46875l8.164062-78.371094zm0 0"
    fill="#fde6bf"
  />
  <path
    d="m364.832031 144.921875h-4.332031l-6.746094-31.277344c-.875-4.054687-4.875-6.636719-8.933594-5.761719-4.054687.875-6.636718 4.875-5.757812 8.933594l6.0625 28.105469h-298.550781l24.03125-111.371094c2.351562-10.90625 10.59375-18.519531 20.042969-18.519531h9.519531l7.460937 71.640625c1.851563 17.789063 16.734375 31.199219 34.617188 31.199219h107.203125c17.886719 0 32.769531-13.410156 34.621093-31.199219l7.460938-71.640625h9.519531c9.445313 0 17.691407 7.613281 20.042969 18.519531l10.664062 49.417969c.875 4.054688 4.875 6.640625 8.929688 5.761719 4.058594-.875 6.636719-4.875 5.761719-8.929688l-10.664063-49.421875c-3.859375-17.886718-18.140625-30.378906-34.734375-30.378906h-210.402343c-16.589844 0-30.875 12.492188-34.734376 30.378906l-24.714843 114.542969h-4.332031c-14.816407 0-26.867188 12.054687-26.867188 26.867187v37.808594c0 14.816406 12.054688 26.867188 26.867188 26.867188h.804687l8.625 68.4375c.519531 4.117187 4.277344 7.042968 8.394531 6.515625 4.117188-.519531 7.035156-4.277344 6.515625-8.394531l-8.386719-66.558594h306.0625l-30.097656 238.789062c-1.460937 12.382813-11.960937 21.71875-24.429687 21.71875h-197.011719c-12.871094 0-23.007812-9.648437-24.65625-23.519531l-17.117188-135.828125c-.519531-4.117188-4.277343-7.042969-8.394531-6.515625-4.117187.519531-7.035156 4.277344-6.519531 8.394531l17.113281 135.777344c2.527344 21.277344 19.171875 36.71875 39.574219 36.71875h197.011719c20.082031 0 37.003906-15.039062 39.347656-34.925781l30.328125-240.609375h.804688c14.8125 0 26.863281-12.054688 26.863281-26.867188v-37.808594c0-14.8125-12.050781-26.867187-26.867188-26.867187zm-88.410156-129.894531-7.300781 70.085937c-1.050782 10.109375-9.507813 17.730469-19.671875 17.730469h-107.203125c-10.160156 0-18.617188-7.621094-19.667969-17.730469l-7.300781-70.085937zm100.25 194.570312c0 6.527344-5.3125 11.839844-11.839844 11.839844h-337.964843c-6.527344 0-11.839844-5.3125-11.839844-11.839844v-37.808594c0-6.527343 5.3125-11.839843 11.839844-11.839843h337.964843c6.527344 0 11.839844 5.3125 11.839844 11.839843zm0 0"
    fill="#0d0008"
  />
</svg>
