<svg
  height="20px"
  width="20px"
  id="Capa_1"
  enable-background="new 0 0 497 497"
  viewBox="0 0 497 497"
  xmlns="http://www.w3.org/2000/svg"
>
  <g>
    <g fill="#ffd900">
      <path
        d="m231.933 49.7c0 9.149 7.417 16.567 16.567 16.567 9.149 0 16.567-7.417 16.567-16.567v-33.133c0-9.15-7.418-16.567-16.567-16.567-9.15 0-16.567 7.417-16.567 16.567z"
      />
      <path
        d="m231.933 480.433c0 9.15 7.417 16.567 16.567 16.567 9.149 0 16.567-7.417 16.567-16.567v-33.133c0-9.149-7.417-16.567-16.567-16.567s-16.567 7.417-16.567 16.567z"
      />
      <path
        d="m447.3 231.933c-9.149 0-16.567 7.417-16.567 16.567s7.417 16.567 16.567 16.567h33.133c9.15 0 16.567-7.417 16.567-16.567s-7.417-16.567-16.567-16.567z"
      />
      <path
        d="m16.567 231.933c-9.15 0-16.567 7.417-16.567 16.567s7.417 16.567 16.567 16.567h33.133c9.149 0 16.567-7.417 16.567-16.567s-7.417-16.567-16.567-16.567z"
      />
      <circle cx="248.5" cy="248.5" r="149.1" />
      <path
        d="m377.358 96.213c-6.47 6.47-6.47 16.959 0 23.429s16.959 6.47 23.429 0l23.429-23.429c6.47-6.47 6.47-16.959 0-23.429s-16.959-6.47-23.429 0z"
      />
      <path
        d="m72.784 400.787c-6.47 6.47-6.47 16.959 0 23.429s16.959 6.47 23.429 0l23.429-23.429c6.47-6.47 6.47-16.959 0-23.429s-16.959-6.47-23.429 0z"
      />
      <path
        d="m400.787 377.358c-6.47-6.47-16.959-6.47-23.429 0s-6.47 16.959 0 23.429l23.429 23.429c6.47 6.47 16.959 6.47 23.429 0s6.47-16.959 0-23.429z"
      />
      <path
        d="m96.213 72.784c-6.47-6.47-16.959-6.47-23.429 0s-6.47 16.959 0 23.429l23.429 23.429c6.47 6.47 16.959 6.47 23.429 0s6.47-16.959 0-23.429z"
      />
    </g>
    <g>
      <path
        d="m172.427 72.343c-2.943 0-5.736-1.743-6.932-4.632l-6.34-15.306c-1.585-3.827.232-8.214 4.059-9.799 3.827-1.583 8.214.231 9.799 4.059l6.34 15.306c1.585 3.827-.232 8.214-4.059 9.799-.938.388-1.91.573-2.867.573z"
        fill="#ffa400"
      />
    </g>
    <g>
      <path
        d="m330.922 454.983c-2.943 0-5.735-1.743-6.932-4.632l-6.34-15.306c-1.586-3.827.231-8.214 4.059-9.799 3.827-1.586 8.214.231 9.799 4.059l6.34 15.306c1.586 3.827-.231 8.214-4.059 9.799-.938.389-1.911.573-2.867.573z"
        fill="#ffa400"
      />
    </g>
    <g>
      <path
        d="m64.843 179.944c-.957 0-1.929-.184-2.867-.573l-15.306-6.34c-3.827-1.585-5.644-5.972-4.059-9.799s5.974-5.647 9.799-4.059l15.306 6.34c3.827 1.585 5.644 5.972 4.059 9.799-1.196 2.888-3.989 4.632-6.932 4.632z"
        fill="#ffa400"
      />
    </g>
    <g>
      <path
        d="m447.483 338.44c-.957 0-1.929-.184-2.867-.573l-15.306-6.34c-3.827-1.585-5.645-5.972-4.058-9.799 1.586-3.826 5.975-5.646 9.799-4.059l15.306 6.34c3.827 1.585 5.645 5.972 4.059 9.799-1.197 2.887-3.989 4.632-6.933 4.632z"
        fill="#ffa400"
      />
    </g>
    <g>
      <path
        d="m49.56 338.44c-2.943 0-5.736-1.743-6.932-4.632-1.585-3.827.233-8.214 4.059-9.799l15.306-6.34c3.826-1.584 8.214.231 9.799 4.059 1.585 3.827-.232 8.214-4.059 9.799l-15.306 6.34c-.938.388-1.91.573-2.867.573z"
        fill="#ffa400"
      />
    </g>
    <g>
      <path
        d="m432.2 179.944c-2.943 0-5.735-1.743-6.932-4.632-1.586-3.827.231-8.214 4.059-9.799l15.306-6.34c3.826-1.585 8.214.232 9.799 4.059 1.586 3.827-.231 8.214-4.059 9.799l-15.306 6.34c-.938.389-1.911.573-2.867.573z"
        fill="#ffa400"
      />
    </g>
    <g>
      <path
        d="m166.121 454.983c-.956 0-1.929-.184-2.867-.573-3.827-1.585-5.644-5.972-4.059-9.799l6.34-15.306c1.584-3.826 5.973-5.647 9.799-4.059 3.827 1.585 5.644 5.972 4.059 9.799l-6.34 15.306c-1.196 2.888-3.989 4.632-6.932 4.632z"
        fill="#ffa400"
      />
    </g>
    <g>
      <path
        d="m324.616 72.343c-.957 0-1.929-.184-2.867-.573-3.827-1.585-5.645-5.972-4.059-9.799l6.34-15.306c1.586-3.826 5.976-5.646 9.799-4.059 3.827 1.585 5.645 5.972 4.059 9.799l-6.34 15.306c-1.196 2.888-3.988 4.632-6.932 4.632z"
        fill="#ffa400"
      />
    </g>
    <path
      d="m248.5 99.4c-3.87 0-7.705.148-11.5.437 76.972 5.871 137.6 70.187 137.6 148.663s-60.628 142.792-137.6 148.663c3.795.289 7.63.438 11.5.438 82.346 0 149.1-66.754 149.1-149.1s-66.754-149.101-149.1-149.101z"
      fill="#fb0"
    />
    <path
      d="m49.7 231.933h-23c9.149 0 16.567 7.417 16.567 16.567 0 9.149-7.417 16.567-16.567 16.567h23c9.149 0 16.567-7.417 16.567-16.567 0-9.149-7.418-16.567-16.567-16.567z"
      fill="#fb0"
    />
    <path
      d="m480.433 231.933h-23c9.15 0 16.567 7.417 16.567 16.567 0 9.149-7.417 16.567-16.567 16.567h23c9.15 0 16.567-7.417 16.567-16.567 0-9.149-7.417-16.567-16.567-16.567z"
      fill="#fb0"
    />
    <path
      d="m248.5 0c-4.471 0-8.52 1.779-11.5 4.657 3.119 3.013 5.067 7.231 5.067 11.91v33.133c0 4.679-1.948 8.897-5.067 11.909 2.98 2.878 7.029 4.657 11.5 4.657 9.149 0 16.567-7.417 16.567-16.567v-33.132c0-9.15-7.418-16.567-16.567-16.567z"
      fill="#fb0"
    />
    <path
      d="m248.5 430.733c-4.471 0-8.52 1.779-11.5 4.657 3.119 3.013 5.067 7.23 5.067 11.909v33.133c0 4.679-1.948 8.897-5.067 11.909 2.98 2.878 7.029 4.657 11.5 4.657 9.149 0 16.567-7.417 16.567-16.567v-33.131c0-9.15-7.418-16.567-16.567-16.567z"
      fill="#fb0"
    />
    <path
      d="m424.216 72.784c-6.401-6.401-16.73-6.458-23.214-.194.07.068.145.125.214.194 6.47 6.47 6.47 16.959 0 23.429l-23.429 23.429c-.069.069-.145.126-.214.194 6.485 6.264 16.814 6.207 23.214-.194l23.429-23.429c6.47-6.47 6.47-16.959 0-23.429z"
      fill="#fb0"
    />
    <path
      d="m424.216 400.787-23.429-23.429c-6.401-6.401-16.73-6.458-23.214-.194.07.067.145.125.214.194l23.429 23.429c6.47 6.47 6.47 16.959 0 23.429-.069.069-.145.126-.214.194 6.484 6.265 16.813 6.207 23.214-.194 6.47-6.47 6.47-16.959 0-23.429z"
      fill="#fb0"
    />
    <path
      d="m119.642 96.213-23.429-23.429c-6.393-6.393-16.703-6.457-23.189-.216.078.075.163.139.239.216l23.429 23.429c6.47 6.47 6.47 16.959 0 23.429-.077.077-.161.141-.239.216 6.486 6.241 16.797 6.176 23.189-.216 6.469-6.47 6.469-16.96 0-23.429z"
      fill="#fb0"
    />
    <path
      d="m119.642 377.358c-6.393-6.393-16.703-6.457-23.189-.216.078.075.162.139.239.216 6.47 6.47 6.47 16.959 0 23.429l-23.429 23.429c-.077.077-.161.141-.239.216 6.486 6.241 16.797 6.176 23.189-.216l23.429-23.429c6.469-6.47 6.469-16.959 0-23.429z"
      fill="#fb0"
    />
  </g>
</svg>
