<svg height="20px" width="20px" enable-background="new 0 0 64 64" viewBox="0 0 64 64" xmlns="http://www.w3.org/2000/svg"><circle cx="32" cy="32" fill="#76c2af" r="32"/><g fill="#4f5d73"><path d="m32 52c-1.1 0-2-.9-2-2v-32c0-1.1.9-2 2-2 1.1 0 2 .9 2 2v32c0 1.1-.9 2-2 2z"/><path d="m46 52c-1.1 0-2-.9-2-2v-32c0-1.1.9-2 2-2 1.1 0 2 .9 2 2v32c0 1.1-.9 2-2 2z"/><path d="m18 52c-1.1 0-2-.9-2-2v-32c0-1.1.9-2 2-2 1.1 0 2 .9 2 2v32c0 1.1-.9 2-2 2z"/></g><circle cx="45.9" cy="38" fill="#231f20" opacity=".2" r="4"/><circle cx="32" cy="27" fill="#231f20" opacity=".2" r="4"/><circle cx="18" cy="44" fill="#231f20" opacity=".2" r="4"/><circle cx="45.9" cy="36" fill="#fff" r="4"/><circle cx="32" cy="25" fill="#fff" r="4"/><circle cx="18" cy="42" fill="#fff" r="4"/></svg>