<?xml version="1.0" standalone="no"?>
<!DOCTYPE svg PUBLIC "-//W3C//DTD SVG 20010904//EN"
 "http://www.w3.org/TR/2001/REC-SVG-20010904/DTD/svg10.dtd">
<svg version="1.0" xmlns="http://www.w3.org/2000/svg"
 width="196.000000pt" height="196.000000pt" viewBox="0 0 196.000000 196.000000"
 preserveAspectRatio="xMidYMid meet">
<metadata>
Created by potrace 1.10, written by Peter Selinger 2001-2011
</metadata>
<g transform="translate(0.000000,196.000000) scale(0.100000,-0.100000)"
fill="#1e90ff" stroke="none">
<path d="M892 1855 c-18 -8 -56 -35 -86 -60 l-53 -46 -235 1 -236 1 -31 -26
c-17 -15 -35 -43 -41 -63 -8 -25 -10 -269 -8 -767 l3 -730 23 -32 c14 -20 38
-37 60 -43 25 -8 252 -10 714 -8 669 3 677 3 705 24 15 11 33 36 40 55 9 25
12 224 12 757 1 784 2 766 -54 810 -27 21 -37 22 -258 22 -185 0 -229 -3 -219
-12 9 -9 75 -14 228 -18 l216 -5 24 -28 24 -29 -2 -748 -3 -749 -23 -23 -23
-23 -673 -3 c-421 -1 -683 1 -699 7 -58 22 -56 -9 -58 794 -1 809 -4 774 57
797 14 6 103 10 197 10 95 0 189 4 210 9 20 5 37 5 37 0 0 -4 -40 -43 -90 -86
l-89 -78 -1 -100 0 -100 420 0 420 0 0 94 0 93 -142 140 c-80 79 -161 148
-183 159 -48 22 -136 24 -183 4z m163 -40 c36 -14 75 -45 221 -173 l84 -73 0
-84 0 -84 -302 -3 c-167 -2 -337 -1 -378 2 l-75 5 -3 79 -3 79 43 45 c51 52
212 183 254 205 37 20 114 21 159 2z"/>
<path d="M923 1750 c-21 -13 -36 -32 -44 -59 -30 -100 52 -176 147 -136 35 15
64 62 64 105 0 37 -30 81 -65 96 -45 19 -64 18 -102 -6z m125 -26 c51 -58 9
-164 -65 -164 -47 0 -72 15 -88 55 -22 51 2 116 50 136 31 13 78 1 103 -27z"/>
<path d="M389 1571 l-29 -29 0 -334 c0 -183 -1 -405 -1 -493 0 -426 -2 -401
29 -435 l27 -30 556 -1 c403 -1 562 2 577 10 12 7 29 23 38 37 18 26 17 -30
15 857 l-1 389 -29 29 c-27 26 -36 29 -95 29 -66 0 -94 -13 -53 -24 12 -3 43
-6 69 -6 84 0 78 47 78 -643 0 -337 -4 -617 -8 -623 -19 -29 -58 -31 -582 -27
-294 2 -540 3 -547 3 -6 0 -19 7 -27 16 -14 14 -16 85 -16 629 0 697 -7 645
85 645 29 0 60 3 69 6 32 12 3 24 -60 24 -59 0 -68 -3 -95 -29z"/>
<path d="M779 1153 c-1 -2 -1 -15 -2 -30 l-1 -28 204 0 204 0 0 28 0 28 -202
2 c-111 1 -202 1 -203 0z"/>
<path d="M773 1000 l0 -30 207 0 207 0 0 30 0 30 -207 0 -207 0 0 -30z"/>
<path d="M774 880 l1 -30 205 0 205 0 1 30 1 30 -207 0 -207 0 1 -30z"/>
<path d="M779 785 c-1 -3 -1 -17 -2 -31 l-1 -27 127 -1 127 -1 0 33 0 32 -125
0 c-69 0 -125 -2 -126 -5z"/>
</g>
</svg>
