<?xml version="1.0" standalone="no"?>
<!DOCTYPE svg PUBLIC "-//W3C//DTD SVG 20010904//EN"
 "http://www.w3.org/TR/2001/REC-SVG-20010904/DTD/svg10.dtd">
<svg version="1.0" xmlns="http://www.w3.org/2000/svg"
 width="196.000000pt" height="196.000000pt" viewBox="0 0 196.000000 196.000000"
 preserveAspectRatio="xMidYMid meet">
<metadata>
Created by potrace 1.10, written by Peter Selinger 2001-2011
</metadata>
<g transform="translate(0.000000,196.000000) scale(0.100000,-0.100000)"
fill="#1e90ff" stroke="none">
<path d="M919 1861 c-45 -15 -73 -33 -117 -75 l-43 -41 -239 -5 -240 -5 -32
-33 -33 -32 -3 -754 -2 -754 25 -31 c15 -17 43 -35 63 -41 24 -6 275 -10 690
-10 708 0 696 -1 740 55 l22 28 0 752 0 752 -22 28 c-41 52 -67 56 -302 49
l-214 -7 -48 45 c-27 25 -64 53 -83 63 -39 19 -124 28 -162 16z m-357 -386
c-3 -82 0 -105 10 -105 289 -5 789 -7 806 -3 21 5 22 10 22 109 l0 104 65 0
c57 0 69 -3 91 -25 l24 -25 -2 -611 -3 -611 -24 -19 c-22 -18 -47 -19 -573
-19 l-549 0 -24 25 -25 24 0 604 c0 596 0 605 21 631 19 24 27 26 92 26 l72 0
-3 -105z"/>
<path d="M780 1120 l0 -30 200 0 200 0 0 30 0 30 -200 0 -200 0 0 -30z"/>
<path d="M780 1000 l0 -30 200 0 200 0 0 30 0 30 -200 0 -200 0 0 -30z"/>
<path d="M780 880 l0 -30 200 0 200 0 0 30 0 30 -200 0 -200 0 0 -30z"/>
<path d="M780 758 l0 -28 125 0 125 0 0 24 0 25 -125 3 -125 3 0 -27z"/>
</g>
</svg>
